<?xml version="1.0" encoding="UTF-8"?>
<!-- Generated by jsxcad -->
<!DOCTYPE svg PUBLIC "-//W3C//DTD SVG 1.1 Tiny//EN" "http://www.w3.org/Graphics/SVG/1.1/DTD/svg11-tiny.dtd">
<svg viewBox="-250 -250 500 500" width="500" height="500" xmlns="http://www.w3.org/2000/svg"><path d="M-144.07905135552855,-51.00118035625586L-160.76530659174887,78.156672728293L-139.45856336994822,-56.7233232176683zM-139.45856336994822,-56.7233232176683L-156.93725522165303,82.8672818468454L-134.5851512594314,-62.33980562169911zM-148.43528538467,-45.18279396718323L-164.1659875626053,73.23141109381669L-144.07905135552855,-51.00118035625586zM-134.5851512594314,-62.33980562169911L-152.68425919777548,87.34581345975799L-129.4701777631738,-67.84156548460236zM-152.51598093799575,-39.277947784122404L-167.13826169246,68.10894644905005L-148.43528538467,-45.18279396718323zM-129.4701777631738,-67.84156548460236L-148.01032573033686,91.57498463530196L-124.12505932420021,-73.21987285157527zM-156.30994759306344,-33.29680988071182L-169.68248378124034,62.80668974372051L-152.51598093799575,-39.277947784122404zM-124.12505932420021,-73.21987285157527L-142.92102899438362,95.53771892362286L-118.5612031875974,-78.46629870166491zM-159.80606201067735,-27.249951956985818L-171.80024675101103,57.34194323028444L-156.30994759306344,-33.29680988071182zM-118.5612031875974,-78.46629870166491L-137.4236494676704,99.21727549938439L-112.79005825973897,-83.5727466100736zM-162.99335405819824,-21.148358522828637L-173.49432082692277,51.73180687055765L-159.80606201067735,-27.249951956985818zM-112.79005825973897,-83.5727466100736L-131.52720076280485,102.59733602696686L-106.82306585828594,-88.53135593114612zM-165.86096824962917,-15.003450725290724L-174.76857295910986,45.99315229358336L-162.99335405819824,-21.148358522828637zM-106.82306585828594,-88.53135593114612L-125.2425129741442,105.6621446687632L-100.67169192459463,-93.33456824303752zM-168.39828485059817,-8.827083441887854L-175.62779103204144,40.1425592295318L-165.86096824962917,-15.003450725290724zM-100.67169192459463,-93.33456824303752L-118.58227013410725,108.39661975545982L-94.34741873945472,-97.97504667426915zM-170.59487926369658,-2.6315692214689026L-176.07771477158474,34.19626077473666L-168.39828485059817,-8.827083441887854zM-94.34741873945472,-97.97504667426915L-111.56102311162756,110.78646311015471L-87.86173331944273,-102.44568770728799zM-172.44063704369572,3.5703241128369214L-176.12490358587135,28.170134811661093L-170.59487926369658,-2.6315692214689026zM-87.86173331944273,-102.44568770728799L-104.19525176171744,112.81830502272396L-81.22616982906536,-106.73962522496937zM-173.92571708816456,9.765365953442455L-175.7765772545412,22.07965230535456L-172.44063704369572,3.5703241128369214zM-81.22616982906536,-106.73962522496937L-96.50330977758553,114.4798060022154L-74.45229501406013,-110.85017672426336zM-74.45229501406013,-110.85017672426336L-88.50547118093431,115.75981216325368L-67.55171684328867,-114.77085800532683zM-67.55171684328867,-114.77085800532683L-80.22382640456179,116.64847061306261L-60.53610842270325,-118.4953528721749zM-175.7765772545412,22.07965230535456L-173.92571708816456,9.765365953442455L-175.04069625758183,15.939859436509572zM-60.53610842270325,-118.4953528721749L-71.68230017458745,117.13732254028324L-53.417199402321074,-122.0175438679467zM-172.44063704369572,3.5703241128369214L-175.7765772545412,22.07965230535456L-176.12490358587135,28.170134811661093zM-53.417199402321074,-122.0175438679467L-62.90651862539501,117.21943628636785L-46.20681790019827,-125.3314546423535zM-170.59487926369658,-2.6315692214689026L-176.12490358587135,28.170134811661093L-176.07771477158474,34.19626077473666zM-46.20681790019827,-125.3314546423535L-53.92375249809641,116.88951278746563L-38.916891848428605,-128.4312695362716zM-38.916891848428605,-128.4312695362716L-44.76278796224158,116.1439771021218L-31.559452874640446,-131.3113169010389zM-168.39828485059817,-8.827083441887854L-176.07771477158474,34.19626077473666L-175.62779103204144,40.1425592295318zM-31.559452874640446,-131.3113169010389L-35.453787869654796,114.98103461580277L-24.146674730821662,-133.96609455055707zM-165.86096824962917,-15.003450725290724L-175.62779103204144,40.1425592295318L-174.76857295910986,45.99315229358336zM-24.146674730821662,-133.96609455055707L-26.02814731500702,113.40078510103707L-16.690869599125815,-136.39023445659717zM-162.99335405819824,-21.148358522828637L-174.76857295910986,45.99315229358336L-173.49432082692277,51.73180687055765zM-16.690869599125815,-136.39023445659717L-16.51831942812182,111.40522399931358L-9.204516462744147,-138.5785159153078zM-9.204516462744147,-138.5785159153078L-6.957622196269251,108.99831954799421L-1.700269358256859,-140.52588941257957zM-159.80606201067735,-27.249951956985818L-173.49432082692277,51.73180687055765L-171.80024675101103,57.34194323028444zM-1.700269358256859,-140.52588941257957L2.6199571718300083,106.18598625294455L5.809023344720741,-142.22742033046862zM-156.30994759306344,-33.29680988071182L-171.80024675101103,57.34194323028444L-169.68248378124034,62.80668974372051zM5.809023344720741,-142.22742033046862L12.179979690884938,102.97611770078626L13.310305286831515,-143.67837922485182zM13.310305286831515,-143.67837922485182L21.687781002345314,99.37855141198798L20.790299443400013,-144.8741941670219zM-152.51598093799575,-39.277947784122404L-169.68248378124034,62.80668974372051L-167.13826169246,68.10894644905005zM20.790299443400013,-144.8741941670219L31.108693024059484,95.4050339557387L28.235490866255855,-145.81049267506532zM-148.43528538467,-45.18279396718323L-167.13826169246,68.10894644905005L-164.1659875626053,73.23141109381669zM28.235490866255855,-145.81049267506532L40.40829086359125,91.06914630028466L35.632123085528384,-146.48308926546005zM35.632123085528384,-146.48308926546005L49.55260631802212,86.38621795447803L42.966180888910756,-146.88801951549357zM-144.07905135552855,-51.00118035625586L-164.1659875626053,73.23141109381669L-160.76530659174887,78.156672728293zM42.966180888910756,-146.88801951549357L58.508391209737276,81.3732727098947L50.223388773699895,-147.02155679927273zM-139.45856336994822,-56.7233232176683L-160.76530659174887,78.156672728293L-156.93725522165303,82.8672818468454zM50.223388773699895,-147.02155679927273L67.24329559137567,76.04885818577829L57.38920138054796,-146.88023886611484zM57.38920138054796,-146.88023886611484L75.72612455707724,70.43295393859565L64.44880069372336,-146.46090692753305zM-134.5851512594314,-62.33980562169911L-156.93725522165303,82.8672818468454L-152.68425919777548,87.34581345975799z" style="fill:rgb(83,212,212)"/><path d="M-120.0643087568177,133.87615105047774L-160.76530659174887,78.156672728293L-123.91356963355803,129.10527416561578z" style="fill:rgb(27,51,152)"/><path d="M157.15783337201407,-84.73796822718228L178.8096495881637,-19.207259141490976L177.20950182757974,-25.134654167260766z" style="fill:rgb(247,163,152)"/><path d="M64.44880069372336,-146.46090692753305L83.92701890833345,64.54682269529029L71.38710376151137,-145.76069495592188zM-129.4701777631738,-67.84156548460236L-152.68425919777548,87.34581345975799L-148.01032573033686,91.57498463530196zM71.38710376151137,-145.76069495592188L91.8176566617023,58.41283446137216L78.18874679375492,-144.77706711567436zM78.18874679375492,-144.77706711567436L99.37138833367986,52.054341531244155L84.83812774936109,-143.5079206986458zM-124.12505932420021,-73.21987285157527L-148.01032573033686,91.57498463530196L-142.92102899438362,95.53771892362286z" style="fill:rgb(83,212,212)"/><path d="M-115.8159338446825,138.4235158818682L-156.93725522165303,82.8672818468454L-120.0643087568177,133.87615105047774z" style="fill:rgb(31,48,156)"/><path d="M158.7188313823164,-78.86108963016072L179.99468821779683,-13.086426522268448L178.8096495881637,-19.207259141490976z" style="fill:rgb(247,159,157)"/><path d="M84.83812774936109,-143.5079206986458L106.56343909303341,45.49547586771821L91.31938218650072,-141.95150925724153zM-118.5612031875974,-78.46629870166491L-142.92102899438362,95.53771892362286L-137.4236494676704,99.21727549938439zM91.31938218650072,-141.95150925724153L113.37099802096748,38.760996271150375L97.6164141157692,-140.10658750187224zM97.6164141157692,-140.10658750187224L119.77333113705467,31.87611257238493L103.71292703376236,-137.97235609401875z" style="fill:rgb(83,212,212)"/><path d="M-111.17324836985463,142.73034301805504L-152.68425919777548,87.34581345975799L-115.8159338446825,138.4235158818682z" style="fill:rgb(35,46,161)"/><path d="M-112.79005825973897,-83.5727466100736L-137.4236494676704,99.21727549938439L-131.52720076280485,102.59733602696686zM103.71292703376236,-137.97235609401875L125.75189325264533,24.866303990076126L109.59242047978536,-135.54860078863834z" style="fill:rgb(83,212,212)"/><path d="M179.99468821779683,-13.086426522268448L160.51771677261226,-66.49216592099717L180.75367368694347,-6.786075060201942z" style="fill:rgb(247,154,161)"/><path d="M-106.82306585828594,-88.53135593114612L-131.52720076280485,102.59733602696686L-125.2425129741442,105.6621446687632zM109.59242047978536,-135.54860078863834L131.29034164777764,17.757148849419366L115.2382604331795,-132.83566141334174z" style="fill:rgb(83,212,212)"/><path d="M-106.14256039264187,146.77986071762967L-148.01032573033686,91.57498463530196L-111.17324836985463,142.73034301805504z" style="fill:rgb(39,43,165)"/><path d="M115.2382604331795,-132.83566141334174L136.37461674223346,10.574175392464689L120.6336991779549,-129.8345304047589zM-100.67169192459463,-93.33456824303752L-125.2425129741442,105.6621446687632L-118.58227013410725,108.39661975545982z" style="fill:rgb(83,212,212)"/><path d="M-160.76530659174887,78.156672728293L-120.0643087568177,133.87615105047774L-156.93725522165303,82.8672818468454z" style="fill:rgb(27,51,152)"/><path d="M178.8096495881637,-19.207259141490976L157.15783337201407,-84.73796822718228L158.7188313823164,-78.86108963016072z" style="fill:rgb(247,163,152)"/><path d="M120.6336991779549,-129.8345304047589L140.99293608613823,3.3426846687453664L125.76189660132606,-126.54685955267131z" style="fill:rgb(83,212,212)"/><path d="M180.75367368694347,-6.786075060201942L160.7334780471382,-60.028142403323486L181.07676878201588,-0.3212217865968305z" style="fill:rgb(246,150,166)"/><path d="M125.76189660132606,-126.54685955267131L145.13578265271542,-3.9123840747207286L130.60602305041635,-122.97503300483747zM-94.34741873945472,-97.97504667426915L-118.58227013410725,108.39661975545982L-111.56102311162756,110.78646311015471z" style="fill:rgb(83,212,212)"/><path d="M-100.73177153784073,150.5555960660708L-142.92102899438362,95.53771892362286L-106.14256039264187,146.77986071762967z" style="fill:rgb(43,41,169)"/><path d="M130.60602305041635,-122.97503300483747L148.7959035121674,-11.166598494818674L135.14927360017708,-119.1222276972352z" style="fill:rgb(83,212,212)"/><path d="M-156.93725522165303,82.8672818468454L-115.8159338446825,138.4235158818682L-152.68425919777548,87.34581345975799z" style="fill:rgb(31,48,156)"/><path d="M-87.86173331944273,-102.44568770728799L-111.56102311162756,110.78646311015471L-104.19525176171744,112.81830502272396z" style="fill:rgb(83,212,212)"/><path d="M181.07676878201588,-0.3212217865968305L160.48065349817603,-53.398384089585726L180.95524354219916,6.292019472108803z" style="fill:rgb(246,145,170)"/><path d="M179.99468821779683,-13.086426522268448L158.7188313823164,-78.86108963016072L159.8426738883815,-72.77468352011009z" style="fill:rgb(247,159,157)"/><path d="M135.14927360017708,-119.1222276972352L151.96822289336046,-18.396154870200977L139.37494048919353,-114.99244183442585zM139.37494048919353,-114.99244183442585L154.6498216086916,-25.577995762624116L143.2665120200945,-110.59055721352595z" style="fill:rgb(83,212,212)"/><path d="M-94.95038874063854,154.04149006161808L-137.4236494676704,99.21727549938439L-100.73177153784073,150.5555960660708z" style="fill:rgb(47,39,174)"/><path d="M-81.22616982906536,-106.73962522496937L-104.19525176171744,112.81830502272396L-96.50330977758553,114.4798060022154z" style="fill:rgb(83,212,212)"/><path d="M160.51771677261226,-66.49216592099717L179.99468821779683,-13.086426522268448L159.8426738883815,-72.77468352011009z" style="fill:rgb(247,154,161)"/><path d="M143.2665120200945,-110.59055721352595L156.83985393691438,-32.68991081400585L146.80773230930072,-105.922377826299z" style="fill:rgb(83,212,212)"/><path d="M-152.68425919777548,87.34581345975799L-111.17324836985463,142.73034301805504L-148.01032573033686,91.57498463530196z" style="fill:rgb(35,46,161)"/><path d="M180.95524354219916,6.292019472108803L159.75142073632674,-46.619848008703855L180.38176418668345,13.036459845806096z" style="fill:rgb(245,140,174)"/><path d="M-74.45229501406013,-110.85017672426336L-96.50330977758553,114.4798060022154L-88.50547118093431,115.75981216325368zM146.80773230930072,-105.922377826299L158.53939294442515,-39.71061869947369L149.98265908927254,-100.99469156414274z" style="fill:rgb(83,212,212)"/><path d="M-88.8096065242884,157.2220390215716L-131.52720076280485,102.59733602696686L-94.95038874063854,154.04149006161808z" style="fill:rgb(52,37,178)"/><path d="M149.98265908927254,-100.99469156414274L159.75142073632674,-46.619848008703855L152.77583724522543,-95.81529908432827zM-67.55171684328867,-114.77085800532683L-88.50547118093431,115.75981216325368L-80.22382640456179,116.64847061306261z" style="fill:rgb(83,212,212)"/><path d="M160.7334780471382,-60.028142403323486L180.75367368694347,-6.786075060201942L160.51771677261226,-66.49216592099717z" style="fill:rgb(246,150,166)"/><path d="M180.38176418668345,13.036459845806096L158.53939294442515,-39.71061869947369L179.3503433413389,19.893860198217364z" style="fill:rgb(243,136,178)"/><path d="M152.77583724522543,-95.81529908432827L160.48065349817603,-53.398384089585726L155.17233349951283,-90.39306352081903z" style="fill:rgb(83,212,212)"/><path d="M-148.01032573033686,91.57498463530196L-106.14256039264187,146.77986071762967L-142.92102899438362,95.53771892362286z" style="fill:rgb(39,43,165)"/><path d="M-60.53610842270325,-118.4953528721749L-80.22382640456179,116.64847061306261L-71.68230017458745,117.13732254028324zM155.17233349951283,-90.39306352081903L160.7334780471382,-60.028142403323486L157.15783337201407,-84.73796822718228z" style="fill:rgb(83,212,212)"/><path d="M-82.32232174877187,160.08235793877085L-125.2425129741442,105.6621446687632L-88.8096065242884,157.2220390215716z" style="fill:rgb(57,36,182)"/><path d="M157.15783337201407,-84.73796822718228L160.51771677261226,-66.49216592099717L158.7188313823164,-78.86108963016072zM-53.417199402321074,-122.0175438679467L-71.68230017458745,117.13732254028324L-62.90651862539501,117.21943628636785z" style="fill:rgb(83,212,212)"/><path d="M160.48065349817603,-53.398384089585726L181.07676878201588,-0.3212217865968305L160.7334780471382,-60.028142403323486z" style="fill:rgb(246,145,170)"/><path d="M179.3503433413389,19.893860198217364L156.83985393691438,-32.68991081400585L177.85653279618558,26.844977219036565z" style="fill:rgb(242,131,182)"/><path d="M-142.92102899438362,95.53771892362286L-100.73177153784073,150.5555960660708L-137.4236494676704,99.21727549938439z" style="fill:rgb(43,41,169)"/><path d="M-46.20681790019827,-125.3314546423535L-62.90651862539501,117.21943628636785L-53.92375249809641,116.88951278746563z" style="fill:rgb(83,212,212)"/><path d="M-75.50314503154664,162.6083333688986L-118.58227013410725,108.39661975545982L-82.32232174877187,160.08235793877085z" style="fill:rgb(62,35,186)"/><path d="M158.7188313823164,-78.86108963016072L160.51771677261226,-66.49216592099717L159.8426738883815,-72.77468352011009zM-38.916891848428605,-128.4312695362716L-53.92375249809641,116.88951278746563L-44.76278796224158,116.1439771021218z" style="fill:rgb(83,212,212)"/><path d="M177.85653279618558,26.844977219036565L154.6498216086916,-25.577995762624116L175.89757312343136,33.86960844470426z" style="fill:rgb(240,126,186)"/><path d="M157.15783337201407,-84.73796822718228L160.7334780471382,-60.028142403323486L160.51771677261226,-66.49216592099717z" style="fill:rgb(83,212,212)"/><path d="M159.75142073632674,-46.619848008703855L180.95524354219916,6.292019472108803L160.48065349817603,-53.398384089585726z" style="fill:rgb(245,140,174)"/><path d="M-137.4236494676704,99.21727549938439L-94.95038874063854,154.04149006161808L-131.52720076280485,102.59733602696686z" style="fill:rgb(47,39,174)"/><path d="M155.17233349951283,-90.39306352081903L160.48065349817603,-53.398384089585726L160.7334780471382,-60.028142403323486zM-31.559452874640446,-131.3113169010389L-44.76278796224158,116.1439771021218L-35.453787869654796,114.98103461580277zM152.77583724522543,-95.81529908432827L159.75142073632674,-46.619848008703855L160.48065349817603,-53.398384089585726z" style="fill:rgb(83,212,212)"/><path d="M-104.19525176171744,112.81830502272396L-75.50314503154664,162.6083333688986L-68.36844275836778,164.7867434065511z" style="fill:rgb(67,34,189)"/><path d="M-24.146674730821662,-133.96609455055707L-35.453787869654796,114.98103461580277L-26.02814731500702,113.40078510103707z" style="fill:rgb(83,212,212)"/><path d="M175.89757312343136,33.86960844470426L151.96822289336046,-18.396154870200977L173.4723721221449,40.94665908586667z" style="fill:rgb(238,121,190)"/><path d="M149.98265908927254,-100.99469156414274L158.53939294442515,-39.71061869947369L159.75142073632674,-46.619848008703855z" style="fill:rgb(83,212,212)"/><path d="M158.53939294442515,-39.71061869947369L180.38176418668345,13.036459845806096L159.75142073632674,-46.619848008703855z" style="fill:rgb(243,136,178)"/><path d="M-131.52720076280485,102.59733602696686L-88.8096065242884,157.2220390215716L-125.2425129741442,105.6621446687632z" style="fill:rgb(52,37,178)"/><path d="M-16.690869599125815,-136.39023445659717L-26.02814731500702,113.40078510103707L-16.51831942812182,111.40522399931358zM146.80773230930072,-105.922377826299L156.83985393691438,-32.68991081400585L158.53939294442515,-39.71061869947369zM-9.204516462744147,-138.5785159153078L-16.51831942812182,111.40522399931358L-6.957622196269251,108.99831954799421z" style="fill:rgb(83,212,212)"/><path d="M-96.50330977758553,114.4798060022154L-68.36844275836778,164.7867434065511L-60.93628689097561,166.60537046121019z" style="fill:rgb(72,33,193)"/><path d="M143.2665120200945,-110.59055721352595L154.6498216086916,-25.577995762624116L156.83985393691438,-32.68991081400585z" style="fill:rgb(83,212,212)"/><path d="M173.4723721221449,40.94665908586667L148.7959035121674,-11.166598494818674L170.58168590933838,48.05421624174832z" style="fill:rgb(235,117,193)"/><path d="M139.37494048919353,-114.99244183442585L151.96822289336046,-18.396154870200977L154.6498216086916,-25.577995762624116zM-1.700269358256859,-140.52588941257957L-6.957622196269251,108.99831954799421L2.6199571718300083,106.18598625294455z" style="fill:rgb(83,212,212)"/><path d="M156.83985393691438,-32.68991081400585L179.3503433413389,19.893860198217364L158.53939294442515,-39.71061869947369z" style="fill:rgb(242,131,182)"/><path d="M-125.2425129741442,105.6621446687632L-82.32232174877187,160.08235793877085L-118.58227013410725,108.39661975545982z" style="fill:rgb(57,36,182)"/><path d="M135.14927360017708,-119.1222276972352L148.7959035121674,-11.166598494818674L151.96822289336046,-18.396154870200977zM5.809023344720741,-142.22742033046862L2.6199571718300083,106.18598625294455L12.179979690884938,102.97611770078626z" style="fill:rgb(83,212,212)"/><path d="M-88.50547118093431,115.75981216325368L-60.93628689097561,166.60537046121019L-53.22646455573712,168.05305242840683z" style="fill:rgb(77,32,196)"/><path d="M130.60602305041635,-122.97503300483747L145.13578265271542,-3.9123840747207286L148.7959035121674,-11.166598494818674z" style="fill:rgb(83,212,212)"/><path d="M170.58168590933838,48.05421624174832L145.13578265271542,-3.9123840747207286L167.22818090272287,55.16964677821362z" style="fill:rgb(233,112,197)"/><path d="M13.310305286831515,-143.67837922485182L12.179979690884938,102.97611770078626L21.687781002345314,99.37855141198798zM125.76189660132606,-126.54685955267131L140.99293608613823,3.3426846687453664L145.13578265271542,-3.9123840747207286zM20.790299443400013,-144.8741941670219L21.687781002345314,99.37855141198798L31.108693024059484,95.4050339557387zM120.6336991779549,-129.8345304047589L136.37461674223346,10.574175392464689L140.99293608613823,3.3426846687453664z" style="fill:rgb(83,212,212)"/><path d="M154.6498216086916,-25.577995762624116L177.85653279618558,26.844977219036565L156.83985393691438,-32.68991081400585z" style="fill:rgb(240,126,186)"/><path d="M28.235490866255855,-145.81049267506532L31.108693024059484,95.4050339557387L40.40829086359125,91.06914630028466zM115.2382604331795,-132.83566141334174L131.29034164777764,17.757148849419366L136.37461674223346,10.574175392464689z" style="fill:rgb(83,212,212)"/><path d="M-118.58227013410725,108.39661975545982L-75.50314503154664,162.6083333688986L-111.56102311162756,110.78646311015471z" style="fill:rgb(62,35,186)"/><path d="M-80.22382640456179,116.64847061306261L-53.22646455573712,168.05305242840683L-45.26041847848268,169.1199162918903z" style="fill:rgb(83,32,199)"/><path d="M35.632123085528384,-146.48308926546005L40.40829086359125,91.06914630028466L49.55260631802212,86.38621795447803zM109.59242047978536,-135.54860078863834L125.75189325264533,24.866303990076126L131.29034164777764,17.757148849419366z" style="fill:rgb(83,212,212)"/><path d="M167.22818090272287,55.16964677821362L140.99293608613823,3.3426846687453664L163.41647871272335,62.269681185253404z" style="fill:rgb(230,107,200)"/><path d="M103.71292703376236,-137.97235609401875L119.77333113705467,31.87611257238493L125.75189325264533,24.866303990076126zM42.966180888910756,-146.88801951549357L49.55260631802212,86.38621795447803L58.508391209737276,81.3732727098947zM97.6164141157692,-140.10658750187224L113.37099802096748,38.760996271150375L119.77333113705467,31.87611257238493zM50.223388773699895,-147.02155679927273L58.508391209737276,81.3732727098947L67.24329559137567,76.04885818577829zM91.31938218650072,-141.95150925724153L106.56343909303341,45.49547586771821L113.37099802096748,38.760996271150375zM57.38920138054796,-146.88023886611484L67.24329559137567,76.04885818577829L75.72612455707724,70.43295393859565zM84.83812774936109,-143.5079206986458L99.37138833367986,52.054341531244155L106.56343909303341,45.49547586771821zM64.44880069372336,-146.46090692753305L75.72612455707724,70.43295393859565L83.92701890833345,64.54682269529029zM78.18874679375492,-144.77706711567436L91.8176566617023,58.41283446137216L99.37138833367986,52.054341531244155zM71.38710376151137,-145.76069495592188L83.92701890833345,64.54682269529029L91.8176566617023,58.41283446137216z" style="fill:rgb(83,212,212)"/><path d="M-75.50314503154664,162.6083333688986L-104.19525176171744,112.81830502272396L-111.56102311162756,110.78646311015471z" style="fill:rgb(67,34,189)"/><path d="M151.96822289336046,-18.396154870200977L175.89757312343136,33.86960844470426L154.6498216086916,-25.577995762624116z" style="fill:rgb(238,121,190)"/><path d="M-71.68230017458745,117.13732254028324L-45.26041847848268,169.1199162918903L-37.0612148414041,169.79743376196825z" style="fill:rgb(89,32,202)"/><path d="M163.41647871272335,62.269681185253404L136.37461674223346,10.574175392464689L159.15327285701355,69.33053022692427z" style="fill:rgb(227,102,203)"/><path d="M-68.36844275836778,164.7867434065511L-96.50330977758553,114.4798060022154L-104.19525176171744,112.81830502272396z" style="fill:rgb(72,33,193)"/><path d="M-62.90651862539501,117.21943628636785L-37.0612148414041,169.79743376196825L-28.653430756534327,170.07846540192452z" style="fill:rgb(94,32,205)"/><path d="M159.15327285701355,69.33053022692427L131.29034164777764,17.757148849419366L154.44727012779754,76.32802517849375z" style="fill:rgb(223,98,206)"/><path d="M148.7959035121674,-11.166598494818674L173.4723721221449,40.94665908586667L151.96822289336046,-18.396154870200977z" style="fill:rgb(235,117,193)"/><path d="M-53.92375249809641,116.88951278746563L-28.653430756534327,170.07846540192452L-20.06310108260386,169.95745410052598z" style="fill:rgb(100,32,208)"/><path d="M154.44727012779754,76.32802517849375L125.75189325264533,24.866303990076126L149.3093303933547,83.23772720305773z" style="fill:rgb(219,93,208)"/><path d="M-60.93628689097561,166.60537046121019L-88.50547118093431,115.75981216325368L-96.50330977758553,114.4798060022154z" style="fill:rgb(77,32,196)"/><path d="M145.13578265271542,-3.9123840747207286L170.58168590933838,48.05421624174832L148.7959035121674,-11.166598494818674z" style="fill:rgb(233,112,197)"/><path d="M-44.76278796224158,116.1439771021218L-20.06310108260386,169.95745410052598L-11.31757833759989,169.4304914265441z" style="fill:rgb(106,33,210)"/><path d="M149.3093303933547,83.23772720305773L119.77333113705467,31.87611257238493L143.7523661908481,90.03509093249069z" style="fill:rgb(215,89,211)"/><path d="M-53.22646455573712,168.05305242840683L-80.22382640456179,116.64847061306261L-88.50547118093431,115.75981216325368z" style="fill:rgb(83,32,199)"/><path d="M140.99293608613823,3.3426846687453664L167.22818090272287,55.16964677821362L145.13578265271542,-3.9123840747207286z" style="fill:rgb(230,107,200)"/><path d="M-35.453787869654796,114.98103461580277L-11.31757833759989,169.4304914265441L-2.445425403194663,168.49532863638586z" style="fill:rgb(112,34,213)"/><path d="M143.7523661908481,90.03509093249069L113.37099802096748,38.760996271150375L137.7914052427911,96.69556882816944z" style="fill:rgb(211,85,213)"/><path d="M-26.02814731500702,113.40078510103707L-2.445425403194663,168.49532863638586L6.52374245947378,167.1515203636647z" style="fill:rgb(118,35,215)"/><path d="M137.7914052427911,96.69556882816944L106.56343909303341,45.49547586771821L131.4435005629925,103.19484833880676z" style="fill:rgb(207,80,215)"/><path d="M-45.26041847848268,169.1199162918903L-71.68230017458745,117.13732254028324L-80.22382640456179,116.64847061306261z" style="fill:rgb(89,32,202)"/><path d="M136.37461674223346,10.574175392464689L163.41647871272335,62.269681185253404L140.99293608613823,3.3426846687453664z" style="fill:rgb(227,102,203)"/><path d="M-16.51831942812182,111.40522399931358L6.52374245947378,167.1515203636647L15.559408352069491,165.40042910414238z" style="fill:rgb(124,36,216)"/><path d="M131.4435005629925,103.19484833880676L99.37138833367986,52.054341531244155L124.72772142229381,109.50890976516767z" style="fill:rgb(202,76,217)"/><path d="M-6.957622196269251,108.99831954799421L15.559408352069491,165.40042910414238L24.63032942583306,163.2452906273213z" style="fill:rgb(130,38,218)"/><path d="M124.72772142229381,109.50890976516767L91.8176566617023,58.41283446137216L117.66505525205135,115.61428208741515z" style="fill:rgb(197,72,218)"/><path d="M-37.0612148414041,169.79743376196825L-62.90651862539501,117.21943628636785L-71.68230017458745,117.13732254028324z" style="fill:rgb(94,32,205)"/><path d="M131.29034164777764,17.757148849419366L159.15327285701355,69.33053022692427L136.37461674223346,10.574175392464689z" style="fill:rgb(223,98,206)"/><path d="M2.6199571718300083,106.18598625294455L24.63032942583306,163.2452906273213L33.70472639343136,160.69115037863577z" style="fill:rgb(136,39,219)"/><path d="M117.66505525205135,115.61428208741515L83.92701890833345,64.54682269529029L110.27830182285685,121.48812805472834z" style="fill:rgb(192,68,219)"/><path d="M83.92701890833345,64.54682269529029L102.59199757278472,127.1084580379248L110.27830182285685,121.48812805472834z" style="fill:rgb(187,65,220)"/><path d="M12.179979690884938,102.97611770078626L33.70472639343136,160.69115037863577L42.750468174739886,157.74502981084964z" style="fill:rgb(142,41,220)"/><path d="M-28.653430756534327,170.07846540192452L-53.92375249809641,116.88951278746563L-62.90651862539501,117.21943628636785z" style="fill:rgb(100,32,208)"/><path d="M75.72612455707724,70.43295393859565L94.63222782225009,132.45424578221343L102.59199757278472,127.1084580379248z" style="fill:rgb(182,61,221)"/><path d="M125.75189325264533,24.866303990076126L154.44727012779754,76.32802517849375L131.29034164777764,17.757148849419366z" style="fill:rgb(219,93,208)"/><path d="M21.687781002345314,99.37855141198798L42.750468174739886,157.74502981084964L51.73528351488763,154.4157233766951z" style="fill:rgb(148,44,221)"/><path d="M67.24329559137567,76.04885818577829L86.42653790505544,137.50559957202034L94.63222782225009,132.45424578221343z" style="fill:rgb(177,58,222)"/><path d="M31.108693024059484,95.4050339557387L51.73528351488763,154.4157233766951L60.62696991597819,150.71387148661438z" style="fill:rgb(154,46,222)"/><path d="M58.508391209737276,81.3732727098947L78.00369804152847,142.24389500495366L86.42653790505544,137.50559957202034z" style="fill:rgb(171,55,222)"/><path d="M40.40829086359125,91.06914630028466L60.62696991597819,150.71387148661438L69.39359264214674,146.6518870479465z" style="fill:rgb(160,49,222)"/><path d="M49.55260631802212,86.38621795447803L69.39359264214674,146.6518870479465L78.00369804152847,142.24389500495366z" style="fill:rgb(165,52,222)"/><path d="M-20.06310108260386,169.95745410052598L-44.76278796224158,116.1439771021218L-53.92375249809641,116.88951278746563z" style="fill:rgb(106,33,210)"/><path d="M119.77333113705467,31.87611257238493L149.3093303933547,83.23772720305773L125.75189325264533,24.866303990076126z" style="fill:rgb(215,89,211)"/><path d="M-11.31757833759989,169.4304914265441L-35.453787869654796,114.98103461580277L-44.76278796224158,116.1439771021218z" style="fill:rgb(112,34,213)"/><path d="M113.37099802096748,38.760996271150375L143.7523661908481,90.03509093249069L119.77333113705467,31.87611257238493z" style="fill:rgb(211,85,213)"/><path d="M-2.445425403194663,168.49532863638586L-26.02814731500702,113.40078510103707L-35.453787869654796,114.98103461580277z" style="fill:rgb(118,35,215)"/><path d="M106.56343909303341,45.49547586771821L137.7914052427911,96.69556882816944L113.37099802096748,38.760996271150375z" style="fill:rgb(207,80,215)"/><path d="M6.52374245947378,167.1515203636647L-16.51831942812182,111.40522399931358L-26.02814731500702,113.40078510103707z" style="fill:rgb(124,36,216)"/><path d="M99.37138833367986,52.054341531244155L131.4435005629925,103.19484833880676L106.56343909303341,45.49547586771821z" style="fill:rgb(202,76,217)"/><path d="M15.559408352069491,165.40042910414238L-6.957622196269251,108.99831954799421L-16.51831942812182,111.40522399931358z" style="fill:rgb(130,38,218)"/><path d="M91.8176566617023,58.41283446137216L124.72772142229381,109.50890976516767L99.37138833367986,52.054341531244155z" style="fill:rgb(197,72,218)"/><path d="M24.63032942583306,163.2452906273213L2.6199571718300083,106.18598625294455L-6.957622196269251,108.99831954799421z" style="fill:rgb(136,39,219)"/><path d="M83.92701890833345,64.54682269529029L117.66505525205135,115.61428208741515L91.8176566617023,58.41283446137216z" style="fill:rgb(192,68,219)"/><path d="M33.70472639343136,160.69115037863577L12.179979690884938,102.97611770078626L2.6199571718300083,106.18598625294455z" style="fill:rgb(142,41,220)"/><path d="M102.59199757278472,127.1084580379248L83.92701890833345,64.54682269529029L75.72612455707724,70.43295393859565z" style="fill:rgb(187,65,220)"/><path d="M42.750468174739886,157.74502981084964L21.687781002345314,99.37855141198798L12.179979690884938,102.97611770078626z" style="fill:rgb(148,44,221)"/><path d="M94.63222782225009,132.45424578221343L75.72612455707724,70.43295393859565L67.24329559137567,76.04885818577829z" style="fill:rgb(182,61,221)"/><path d="M51.73528351488763,154.4157233766951L31.108693024059484,95.4050339557387L21.687781002345314,99.37855141198798z" style="fill:rgb(154,46,222)"/><path d="M86.42653790505544,137.50559957202034L67.24329559137567,76.04885818577829L58.508391209737276,81.3732727098947z" style="fill:rgb(177,58,222)"/><path d="M60.62696991597819,150.71387148661438L40.40829086359125,91.06914630028466L31.108693024059484,95.4050339557387z" style="fill:rgb(160,49,222)"/><path d="M78.00369804152847,142.24389500495366L58.508391209737276,81.3732727098947L49.55260631802212,86.38621795447803z" style="fill:rgb(171,55,222)"/><path d="M69.39359264214674,146.6518870479465L49.55260631802212,86.38621795447803L40.40829086359125,91.06914630028466z" style="fill:rgb(165,52,222)"/></svg>
